<?xml version="1.0" encoding="utf-8"?>
<!-- Generator: Adobe Illustrator 19.2.1, SVG Export Plug-In . SVG Version: 6.00 Build 0)  -->
<svg version="1.1" id="Layer_1" xmlns="http://www.w3.org/2000/svg" xmlns:xlink="http://www.w3.org/1999/xlink" x="0px" y="0px"
	 viewBox="0 0 39.5 30.1" style="enable-background:new 0 0 39.5 30.1;" xml:space="preserve">
<style type="text/css">
	.st0{fill:#808080;}
</style>
<g>
	<path class="st0" d="M0,24.6h38.2c0,1.5-0.5,2.8-1.6,3.9s-2.4,1.6-3.9,1.6H5.4c-1.5,0-2.8-0.5-3.9-1.6C0.5,27.4,0,26.1,0,24.6z
		 M37.1,2.4c1.6,1.6,2.4,3.5,2.4,5.8s-0.8,4.2-2.4,5.8c-1.6,1.6-3.5,2.4-5.8,2.4h-1.4v0.7c0,1.3-0.5,2.4-1.4,3.4
		c-0.9,0.9-2.1,1.4-3.4,1.4h-15c-1.3,0-2.4-0.5-3.4-1.4c-0.9-0.9-1.4-2.1-1.4-3.4V1.4c0-0.4,0.1-0.7,0.4-1S6.3,0,6.7,0h24.6
		C33.6,0,35.5,0.8,37.1,2.4z M34.2,11.1c0.8-0.8,1.2-1.8,1.2-2.9S35,6.1,34.2,5.3c-0.8-0.8-1.8-1.2-2.9-1.2h-1.4v8.2h1.4
		C32.5,12.3,33.4,11.9,34.2,11.1z"/>
</g>
</svg>
