<?xml version="1.0" encoding="utf-8"?>
<!-- Generator: Adobe Illustrator 19.2.1, SVG Export Plug-In . SVG Version: 6.00 Build 0)  -->
<svg version="1.1" id="coffee" xmlns="http://www.w3.org/2000/svg" xmlns:xlink="http://www.w3.org/1999/xlink" x="0px" y="0px"
	 viewBox="0 0 61.7 74.2" style="enable-background:new 0 0 61.7 74.2;" xml:space="preserve">
<style type="text/css">
	.st0{fill:none;stroke:#4D4D4F;stroke-width:3;stroke-miterlimit:10;}
	.st1{clip-path:url(#SVGID_2_);fill:#4D4D4F;}
	.st2{clip-path:url(#SVGID_4_);fill:#4D4D4F;}
	.st3{clip-path:url(#SVGID_5_);fill:#4D4D4F;}
	.st4{fill:none;stroke:#4D4D4F;stroke-width:1.9554;stroke-miterlimit:10;}
	.st5{clip-path:url(#SVGID_6_);fill:#4D4D4F;stroke:#4D4D4F;stroke-width:2;stroke-miterlimit:10;}
</style>
<path class="st0" d="M53.3,33c6.8,0.4,6.8-0.8,6.8,6.9c0,6.5-2.7,10.3-6.8,10.3"/>
<g>
	<defs>
		<path id="SVGID_12_" d="M48.4,26.9h-38c-2.6,0-4.7,2.1-4.7,4.7v13.9c0,11.2,10.7,18.6,23.8,18.6c13.1,0,23.8-7.4,23.8-18.6V31.8
			C53.3,29.1,51.1,26.9,48.4,26.9z"/>
	</defs>
	<clipPath id="SVGID_1_">
		<use xlink:href="#SVGID_12_"  style="overflow:visible;"/>
	</clipPath>
	<use xlink:href="#SVGID_12_"  style="overflow:visible;fill:none;stroke:#4D4D4F;stroke-width:2;stroke-miterlimit:10;"/>
</g>
<g>
	<defs>
		<path id="SVGID_3_" d="M48.4,26.9h-38c-2.6,0-4.7,2.1-4.7,4.7v13.9c0,11.2,10.7,18.6,23.8,18.6c13.1,0,23.8-7.4,23.8-18.6V31.8
			C53.3,29.1,51.1,26.9,48.4,26.9z"/>
	</defs>
	<clipPath id="SVGID_2_">
		<use xlink:href="#SVGID_3_"  style="overflow:visible;"/>
	</clipPath>
	<path class="st1" d="M48.4,26.9h-38c-2.6,0-4.7,2.1-4.7,4.7v13.9c0,11.2,10.7,18.6,23.8,18.6c13.1,0,23.8-7.4,23.8-18.6V31.8
		C53.3,29.1,51.1,26.9,48.4,26.9z"/>
</g>
<g>
	<defs>
		<ellipse id="SVGID_15_" cx="23.2" cy="15.3" rx="4.5" ry="5.8"/>
	</defs>
	<clipPath id="SVGID_4_">
		<use xlink:href="#SVGID_15_"  style="overflow:visible;"/>
	</clipPath>
	<path class="st2" d="M23.2,9.5c0.9-1.8,5.7,2.6,5.7,5.8s-3.6,7.3-4.8,5.8c-1.1-1.3-1.5-2.4-1.7-5.8C22.2,12.1,22.4,11.3,23.2,9.5z"
		/>
	<use xlink:href="#SVGID_15_"  style="overflow:visible;fill:none;stroke:#4D4D4F;stroke-width:2;stroke-miterlimit:10;"/>
</g>
<g>
	<defs>
		<ellipse id="SVGID_17_" cx="35.9" cy="6.8" rx="4.5" ry="5.8"/>
	</defs>
	<clipPath id="SVGID_5_">
		<use xlink:href="#SVGID_17_"  style="overflow:visible;"/>
	</clipPath>
	<path class="st3" d="M35.9,1c0.9-1.8,5.7,2.6,5.7,5.8s-3.6,7.3-4.8,5.8c-1.1-1.3-1.5-2.4-1.7-5.8C34.9,3.6,35,2.8,35.9,1z"/>
	<use xlink:href="#SVGID_17_"  style="overflow:visible;fill:none;stroke:#4D4D4F;stroke-width:2;stroke-miterlimit:10;"/>
</g>
<path class="st4" d="M55.5,73.1H3.8c-1.6,0-2.8-1.3-2.8-2.8V68c0-1.6,1.3-2.8,2.8-2.8h51.7c1.6,0,2.8,1.3,2.8,2.8v2.2
	C58.3,71.8,57.1,73.1,55.5,73.1z"/>
<g>
	<defs>
		<path id="SVGID_19_" d="M55.5,73.1H3.8c-1.6,0-2.8-1.3-2.8-2.8V68c0-1.6,1.3-2.8,2.8-2.8h51.7c1.6,0,2.8,1.3,2.8,2.8v2.2
			C58.3,71.8,57.1,73.1,55.5,73.1z"/>
	</defs>
	<clipPath id="SVGID_6_">
		<use xlink:href="#SVGID_19_"  style="overflow:visible;"/>
	</clipPath>
	<rect x="1" y="69.6" class="st5" width="57.3" height="7.9"/>
	<use xlink:href="#SVGID_19_"  style="overflow:visible;fill:none;stroke:#4D4D4F;stroke-width:2;stroke-miterlimit:10;"/>
</g>
</svg>
