<?xml version="1.0" encoding="utf-8"?>
<!-- Generator: Adobe Illustrator 19.2.1, SVG Export Plug-In . SVG Version: 6.00 Build 0)  -->
<svg version="1.1" id="distillery" xmlns="http://www.w3.org/2000/svg" xmlns:xlink="http://www.w3.org/1999/xlink" x="0px" y="0px"
	 viewBox="0 0 52.5 92.7" style="enable-background:new 0 0 52.5 92.7;" xml:space="preserve">
<style type="text/css">
	.st0{fill:none;stroke:#4D4D4F;stroke-width:2.2747;stroke-miterlimit:10;}
	.st1{fill:none;stroke:#4D4D4F;stroke-width:1.8573;stroke-miterlimit:10;}
	.st2{fill:#4D4D4F;}
	.st3{clip-path:url(#SVGID_1_);fill:#4D4D4F;}
	.st4{fill:none;stroke:#4D4D4F;stroke-width:2;stroke-miterlimit:10;}
	.st5{clip-path:url(#SVGID_2_);fill:#4D4D4F;}
</style>
<path class="st0" d="M24.4,91.5H4.9c-2.1,0-3.7-1.7-3.7-3.7V23.3c0-6.4,5.3-11.7,11.7-11.7h3.2c6.3,0,11.4,5.1,11.4,11.4v65.4
	C27.5,90.1,26.1,91.5,24.4,91.5z"/>
<path class="st1" d="M17.8,11.6h-6.8V6.8c0-1.5,1.3-2.8,2.8-2.8H15c1.5,0,2.8,1.3,2.8,2.8V11.6z"/>
<path class="st2" d="M17.2,7.8h-5.6c-1.8,0-3.4-1.5-3.4-3.4V3.4C8.2,1.5,9.7,0,11.6,0l5.6,0c1.8,0,3.4,1.5,3.4,3.4v1.1
	C20.5,6.3,19,7.8,17.2,7.8z"/>
<g>
	<defs>
		<path id="SVGID_5_" d="M24.4,91.5H4.9c-2.1,0-3.7-1.7-3.7-3.7V23.3c0-6.4,5.3-11.7,11.7-11.7h3.2c6.3,0,11.4,5.1,11.4,11.4v65.4
			C27.5,90.1,26.1,91.5,24.4,91.5z"/>
	</defs>
	<clipPath id="SVGID_1_">
		<use xlink:href="#SVGID_5_"  style="overflow:visible;"/>
	</clipPath>
	<path class="st3" d="M18.1,91.5H-8.1V19.6c0-4.4,3.6-7.9,7.9-7.9h18.3V91.5z"/>
</g>
<path class="st4" d="M46.3,91.7h-8.9c-0.9,0-1.6-0.6-1.8-1.4l-3.2-14c-0.3-1.1,0.6-2.2,1.8-2.2h15.4c1.2,0,2,1.1,1.8,2.2l-3.4,14
	C47.9,91.2,47.2,91.7,46.3,91.7z"/>
<g>
	<defs>
		<path id="SVGID_7_" d="M46.3,91.7h-8.9c-0.9,0-1.6-0.6-1.8-1.4l-3.2-14c-0.3-1.1,0.6-2.2,1.8-2.2h15.4c1.2,0,2,1.1,1.8,2.2
			l-3.4,14C47.9,91.2,47.2,91.7,46.3,91.7z"/>
	</defs>
	<clipPath id="SVGID_2_">
		<use xlink:href="#SVGID_7_"  style="overflow:visible;"/>
	</clipPath>
	<polygon class="st5" points="47.7,95.7 36,95.7 32,78 52,78 	"/>
</g>
</svg>
