<?xml version="1.0" encoding="utf-8"?>
<!-- Generator: Adobe Illustrator 19.2.1, SVG Export Plug-In . SVG Version: 6.00 Build 0)  -->
<svg version="1.1" id="Layer_1" xmlns="http://www.w3.org/2000/svg" xmlns:xlink="http://www.w3.org/1999/xlink" x="0px" y="0px"
	 viewBox="0 0 28.9 29.9" style="enable-background:new 0 0 28.9 29.9;" xml:space="preserve">
<style type="text/css">
	.st0{fill:#808080;}
</style>
<g>
	<path class="st0" d="M28.9,1.1c0,0.4-0.3,0.9-0.8,1.4L16.7,13.9v13.8h5.8c0.3,0,0.6,0.1,0.8,0.3c0.2,0.2,0.3,0.5,0.3,0.8
		s-0.1,0.6-0.3,0.8c-0.2,0.2-0.5,0.3-0.8,0.3H6.3c-0.3,0-0.6-0.1-0.8-0.3c-0.2-0.2-0.3-0.5-0.3-0.8s0.1-0.6,0.3-0.8
		c0.2-0.2,0.5-0.3,0.8-0.3h5.8V13.9L0.8,2.5C0.3,2,0,1.5,0,1.1c0-0.3,0.1-0.5,0.3-0.7C0.5,0.2,0.7,0.1,1,0.1C1.2,0.1,1.5,0,1.8,0
		h25.4c0.3,0,0.5,0,0.8,0.1c0.2,0,0.5,0.2,0.7,0.3C28.8,0.6,28.9,0.8,28.9,1.1z"/>
</g>
</svg>
