<?xml version="1.0" encoding="utf-8"?>
<!-- Generator: Adobe Illustrator 19.2.1, SVG Export Plug-In . SVG Version: 6.00 Build 0)  -->
<svg version="1.1" id="Layer_2" xmlns="http://www.w3.org/2000/svg" xmlns:xlink="http://www.w3.org/1999/xlink" x="0px" y="0px"
	 viewBox="0 0 53.9 71.2" style="enable-background:new 0 0 53.9 71.2;" xml:space="preserve">
<style type="text/css">
	.st0{fill:#4D4D4F;}
	.st1{fill:none;stroke:#4D4D4F;stroke-width:1.5;stroke-miterlimit:10;}
</style>
<path class="st0" d="M45.8,17.3H8.1c-4.5,0-8.1,3.7-8.1,8.1V63c0,4.5,3.7,8.1,8.1,8.1h37.6c4.5,0,8.1-3.7,8.1-8.1V25.4
	C53.9,20.9,50.2,17.3,45.8,17.3z M51.1,56c0,3.9-3.2,7.1-7.1,7.1H8.5c-3.9,0-7.1-3.2-7.1-7.1V25.8c0-3.9,3.2-7.1,7.1-7.1H44
	c3.9,0,7.1,3.2,7.1,7.1V56z"/>
<circle class="st0" cx="9.9" cy="54.3" r="4.7"/>
<path class="st1" d="M37.8,17.8H18.1v-4.4c0-0.5,0.4-0.8,0.8-0.8H37c0.5,0,0.8,0.4,0.8,0.8V17.8z"/>
<path class="st1" d="M34.6,9.4H21.5c-1.8,0-3.3-1.5-3.3-3.3v-2c0-1.8,1.5-3.3,3.3-3.3l13.1,0c1.8,0,3.3,1.5,3.3,3.3v2
	C38,7.9,36.5,9.4,34.6,9.4z"/>
<path class="st0" d="M32,12.5h-7.8V4.1c0-0.6,0.5-1.1,1.1-1.1h3.6C30.6,3,32,4.4,32,6.2V12.5z"/>
<path class="st0" d="M44,68H30.8V18H44c4.5,0,8.1,3.7,8.1,8.1v33.8C52.1,64.4,48.5,68,44,68z"/>
<rect x="18.1" y="12.6" class="st0" width="12.7" height="6.2"/>
</svg>
