<?xml version="1.0" encoding="utf-8"?>
<!-- Generator: Adobe Illustrator 19.2.1, SVG Export Plug-In . SVG Version: 6.00 Build 0)  -->
<svg version="1.1" id="Layer_1" xmlns="http://www.w3.org/2000/svg" xmlns:xlink="http://www.w3.org/1999/xlink" x="0px" y="0px"
	 viewBox="0 0 24.6 35.1" style="enable-background:new 0 0 24.6 35.1;" xml:space="preserve">
<style type="text/css">
	.st0{fill:#808080;}
</style>
<g>
	<path class="st0" d="M9.5,35c1.2,0,2.4,0,3.7,0c0.5,0,0.9-0.1,1.3-0.5c2.4-2.1,3.9-4.8,4.4-8c0.4-2.5-0.2-4.7-2-6.6
		c-1-1-2.1-1.8-3.3-2.5c-0.1-0.1-0.3-0.1-0.4-0.1c-2.5,0-5,0-7.4,0c-0.2,0-0.4,0.1-0.5,0.1c-0.8,0.6-1.7,1.1-2.4,1.8
		c-1.9,1.6-3,3.7-2.8,6.3c0.1,1.4,0.4,2.7,0.9,3.9c0.9,2.1,2.1,4,4,5.4C5.2,34.9,5.4,35,5.7,35C6.9,35.1,8.2,35,9.5,35z M11.9,4.6
		C12.2,5.8,13,6.5,14,7.1c1.8,1,3.7,1.2,5.6,0.9c1.4-0.2,2.8-0.7,3.9-1.7c0.6-0.6,1.1-1.3,1.1-2.2c0-1.3-0.7-2.2-1.7-2.8
		c-2.7-1.7-5.6-1.7-8.5-0.5c-1.1,0.5-2.1,1.3-2.4,2.5c0,0.1-0.1,0.2-0.2,0.2c-0.3,0-0.7,0.1-1,0c-0.1,0-0.2-0.4-0.3-0.6
		c0-0.1-0.1-0.2-0.2-0.3c-0.5-0.7-1.2-0.7-1.7,0C8.1,3.4,8.1,4.7,8.7,5.4C9.1,5.8,9,6.3,9,6.8c-0.5,0-1,0-1.5,0c0,0.2,0,0.3,0,0.5
		c1.3,0,2.7,0,4,0c0-0.2,0-0.3,0-0.5c-0.5,0-1,0-1.5,0c0-0.5-0.1-1,0.3-1.4c0.1-0.1,0.1-0.2,0.2-0.3c0.1-0.7,0.5-0.7,1.1-0.6
		C11.7,4.6,11.8,4.6,11.9,4.6z M13.3,12.3c0-1.2,0-2.4,0-3.6c0-0.5-0.2-0.7-0.7-0.7c-2,0-4.1,0-6.1,0C6,8,5.8,8.2,5.8,8.7
		c0,2.4,0,4.8,0,7.2c0,0.5,0.2,0.7,0.7,0.7c2,0,4,0,6.1,0c0.5,0,0.8-0.2,0.8-0.7C13.3,14.6,13.3,13.5,13.3,12.3z"/>
	<path class="st0" d="M9.5,35c-1.3,0-2.6,0-3.9,0c-0.2,0-0.5-0.1-0.7-0.2c-1.9-1.4-3.1-3.3-4-5.4C0.4,28.1,0,26.8,0,25.5
		c-0.1-2.6,0.9-4.6,2.8-6.3c0.8-0.6,1.6-1.2,2.4-1.8c0.1-0.1,0.3-0.1,0.5-0.1c2.5,0,5,0,7.4,0c0.1,0,0.3,0,0.4,0.1
		c1.2,0.7,2.3,1.5,3.3,2.5c1.8,1.9,2.4,4.1,2,6.6c-0.5,3.2-2,5.8-4.4,8C14,34.8,13.6,35,13.1,35C11.9,35,10.7,35,9.5,35z"/>
	<path class="st0" d="M11.9,4.6c-0.2,0-0.3,0-0.4,0c-0.5-0.1-1,0-1.1,0.6c0,0.1-0.1,0.2-0.2,0.3C9.8,5.9,9.9,6.4,9.9,6.9
		c0.5,0,1,0,1.5,0c0,0.2,0,0.3,0,0.5c-1.3,0-2.7,0-4,0c0-0.1,0-0.3,0-0.5c0.5,0,1,0,1.5,0C8.9,6.4,9,6,8.6,5.5C8,4.8,8,3.4,8.5,2.7
		C9,2,9.7,2,10.2,2.7c0.1,0.1,0.1,0.2,0.2,0.3c0.1,0.2,0.2,0.5,0.3,0.6c0.3,0.1,0.7,0,1,0c0.1,0,0.2-0.1,0.2-0.2
		c0.4-1.3,1.3-2,2.4-2.5c2.9-1.2,5.8-1.2,8.5,0.5c1,0.6,1.7,1.5,1.7,2.8c0,0.9-0.4,1.6-1.1,2.2c-1.1,1-2.4,1.5-3.9,1.7
		c-2,0.3-3.9,0-5.6-0.9C13,6.6,12.2,5.8,11.9,4.6z"/>
	<path class="st0" d="M13.3,12.3c0,1.2,0,2.4,0,3.6c0,0.5-0.2,0.7-0.8,0.7c-2,0-4,0-6.1,0c-0.5,0-0.7-0.2-0.7-0.7c0-2.4,0-4.8,0-7.2
		C5.7,8.2,5.9,8,6.4,8c2,0,4.1,0,6.1,0c0.5,0,0.7,0.2,0.7,0.7C13.3,9.9,13.3,11.1,13.3,12.3z"/>
</g>
</svg>
